<?xml version="1.0" standalone="no"?>
<!DOCTYPE svg PUBLIC "-//W3C//DTD SVG 20010904//EN"
 "http://www.w3.org/TR/2001/REC-SVG-20010904/DTD/svg10.dtd">
<svg version="1.0" xmlns="http://www.w3.org/2000/svg"
 width="700.000000pt" height="700.000000pt" viewBox="0 0 700.000000 700.000000"
 preserveAspectRatio="xMidYMid meet">
<metadata>
Created by potrace 1.14, written by Peter Selinger 2001-2017
</metadata>
<g transform="translate(0.000000,700.000000) scale(0.100000,-0.100000)"
fill="#000000" stroke="none">
<path d="M2061 6978 c-164 -19 -333 -98 -451 -210 -217 -207 -296 -484 -224
-783 15 -65 89 -222 126 -269 13 -16 525 -532 1138 -1146 1172 -1174 1175
-1177 1321 -1236 170 -69 360 -78 544 -24 137 39 294 151 392 276 51 66 108
183 135 275 22 79 30 252 15 340 -18 111 -70 233 -142 334 -62 86 -2256 2273
-2325 2317 -137 88 -237 118 -435 132 -16 1 -59 -2 -94 -6z"/>
<path d="M2097 4305 c-1 -2 -27 -5 -57 -9 -254 -29 -487 -196 -604 -434 -60
-119 -85 -240 -81 -377 5 -161 56 -309 149 -438 54 -76 2823 -2842 2886 -2884
91 -61 186 -102 301 -129 51 -13 238 -12 300 1 306 64 542 287 620 584 27 99
29 277 5 375 -26 107 -72 205 -137 292 -51 68 -2755 2776 -2844 2849 -97 78
-243 142 -368 160 -47 7 -165 14 -170 10z"/>
<path d="M2137 1614 c-1 -1 -34 -4 -73 -7 -262 -23 -517 -204 -631 -447 -143
-307 -80 -665 159 -903 254 -252 641 -302 958 -124 95 54 222 178 279 273 175
296 147 660 -70 922 -123 149 -308 252 -497 278 -39 5 -122 11 -125 8z"/>
</g>
</svg>
