<?xml version="1.0" standalone="no"?>
<!DOCTYPE svg PUBLIC "-//W3C//DTD SVG 20010904//EN"
 "http://www.w3.org/TR/2001/REC-SVG-20010904/DTD/svg10.dtd">
<svg version="1.0" xmlns="http://www.w3.org/2000/svg"
 width="700.000000pt" height="700.000000pt" viewBox="0 0 700.000000 700.000000"
 preserveAspectRatio="xMidYMid meet">
<metadata>
Created by potrace 1.14, written by Peter Selinger 2001-2017
</metadata>
<g transform="translate(0.000000,700.000000) scale(0.100000,-0.100000)"
fill="#000000" stroke="none">
<path d="M2114 6679 c-281 -61 -498 -282 -557 -566 -29 -140 -6 -335 54 -456
57 -115 127 -189 1133 -1193 1104 -1102 1079 -1079 1232 -1132 122 -42 268
-52 404 -27 110 21 255 101 348 193 155 154 225 329 218 547 -5 151 -44 270
-129 395 -49 71 -2073 2089 -2140 2133 -167 111 -370 149 -563 106z"/>
<path d="M2113 4219 c-336 -73 -573 -365 -574 -706 -1 -154 39 -286 126 -417
55 -83 2591 -2615 2676 -2671 126 -85 276 -126 429 -120 97 5 111 7 199 36
297 95 496 368 499 681 1 157 -38 290 -123 417 -30 46 -440 462 -1347 1368
l-1303 1301 -105 50 c-58 27 -132 55 -165 62 -93 19 -220 19 -312 -1z"/>
<path d="M2153 1754 c-166 -28 -274 -84 -398 -209 -139 -138 -203 -282 -211
-473 -12 -306 154 -578 428 -701 99 -45 178 -61 298 -61 98 0 141 6 220 31
249 79 440 293 495 554 14 67 14 224 1 285 -31 141 -93 255 -196 363 -160 170
-405 250 -637 211z"/>
</g>
</svg>
